<svg xmlns="http://www.w3.org/2000/svg" xmlns:xlink="http://www.w3.org/1999/xlink" contentStyleType="text/css" data-diagram-type="ACTIVITY" height="398px" preserveAspectRatio="none" style="width:1047px;height:398px;background:#FFFFFF;" version="1.1" viewBox="0 0 1047 398" width="1047px" zoomAndPan="magnify"><title>Basic scheme</title><defs/><g><g class="title" data-source-line="1"><text fill="#000000" font-family="sans-serif" font-size="14" font-weight="bold" lengthAdjust="spacing" textLength="106.5996" x="468.9834" y="32.9951">Basic scheme</text></g><ellipse cx="545.5918" cy="57.2969" fill="#222222" rx="10" ry="10" style="stroke:#222222;stroke-width:1;"/><rect fill="#F1F1F1" height="33.9688" rx="12.5" ry="12.5" style="stroke:#181818;stroke-width:0.5;" width="182.5977" x="454.293" y="87.2969"/><text fill="#000000" font-family="sans-serif" font-size="12" lengthAdjust="spacing" textLength="158.7832" x="468.1074" y="108.4355">scan input, get arguments</text><rect fill="#F1F1F1" height="33.9688" rx="12.5" ry="12.5" style="stroke:#181818;stroke-width:0.5;" width="382.9766" x="354.1035" y="141.2656"/><text fill="#000000" font-family="sans-serif" font-size="12" lengthAdjust="spacing" textLength="359.1621" x="367.918" y="162.4043">traverse given directory recursively using "os.walk" module</text><polygon fill="#F1F1F1" points="474.3362,195.2344,616.8474,195.2344,628.8474,207.2344,616.8474,219.2344,474.3362,219.2344,462.3362,207.2344,474.3362,195.2344" style="stroke:#181818;stroke-width:0.5;"/><text fill="#000000" font-family="sans-serif" font-size="11" lengthAdjust="spacing" textLength="142.5112" x="474.3362" y="211.0425">output path was specified</text><text fill="#000000" font-family="sans-serif" font-size="11" lengthAdjust="spacing" textLength="19.0083" x="443.3279" y="204.6401">yes</text><text fill="#000000" font-family="sans-serif" font-size="11" lengthAdjust="spacing" textLength="13.7017" x="628.8474" y="204.6401">no</text><rect fill="#F1F1F1" height="33.9688" rx="12.5" ry="12.5" style="stroke:#181818;stroke-width:0.5;" width="546.4004" x="11" y="229.2344"/><text fill="#000000" font-family="sans-serif" font-size="12" lengthAdjust="spacing" textLength="522.5859" x="24.8145" y="250.373">call PlantUML (from python) to create a scheme, redirect it to the file by specified path</text><rect fill="#F1F1F1" height="33.9688" rx="12.5" ry="12.5" style="stroke:#181818;stroke-width:0.5;" width="459.166" x="577.4004" y="229.2344"/><text fill="#000000" font-family="sans-serif" font-size="12" lengthAdjust="spacing" textLength="435.3516" x="591.2148" y="250.373">call PlantUML (from python) to create a scheme, redirect it to the stdout</text><rect fill="#F1F1F1" height="33.9688" rx="12.5" ry="12.5" style="stroke:#181818;stroke-width:0.5;" width="379.7891" x="617.0889" y="283.2031"/><text fill="#000000" font-family="sans-serif" font-size="12" lengthAdjust="spacing" textLength="355.9746" x="630.9033" y="304.3418">show pick up the generated image from stdout and show it</text><polygon fill="#F1F1F1" points="545.5918,323.1719,557.5918,335.1719,545.5918,347.1719,533.5918,335.1719,545.5918,323.1719" style="stroke:#181818;stroke-width:0.5;"/><ellipse cx="545.5918" cy="377.1719" fill="none" rx="10" ry="10" style="stroke:#222222;stroke-width:1.5;"/><line style="stroke:#222222;stroke-width:2.5;" x1="539.4046" x2="551.779" y1="370.9847" y2="383.3591"/><line style="stroke:#222222;stroke-width:2.5;" x1="551.779" x2="539.4046" y1="370.9847" y2="383.3591"/><line style="stroke:#181818;stroke-width:1;" x1="545.5918" x2="545.5918" y1="67.2969" y2="87.2969"/><polygon fill="#181818" points="541.5918,77.2969,545.5918,87.2969,549.5918,77.2969,545.5918,81.2969" style="stroke:#181818;stroke-width:1;"/><line style="stroke:#181818;stroke-width:1;" x1="545.5918" x2="545.5918" y1="121.2656" y2="141.2656"/><polygon fill="#181818" points="541.5918,131.2656,545.5918,141.2656,549.5918,131.2656,545.5918,135.2656" style="stroke:#181818;stroke-width:1;"/><line style="stroke:#181818;stroke-width:1;" x1="806.9834" x2="806.9834" y1="263.2031" y2="283.2031"/><polygon fill="#181818" points="802.9834,273.2031,806.9834,283.2031,810.9834,273.2031,806.9834,277.2031" style="stroke:#181818;stroke-width:1;"/><line style="stroke:#181818;stroke-width:1;" x1="462.3362" x2="284.2002" y1="207.2344" y2="207.2344"/><line style="stroke:#181818;stroke-width:1;" x1="284.2002" x2="284.2002" y1="207.2344" y2="229.2344"/><polygon fill="#181818" points="280.2002,219.2344,284.2002,229.2344,288.2002,219.2344,284.2002,223.2344" style="stroke:#181818;stroke-width:1;"/><line style="stroke:#181818;stroke-width:1;" x1="628.8474" x2="806.9834" y1="207.2344" y2="207.2344"/><line style="stroke:#181818;stroke-width:1;" x1="806.9834" x2="806.9834" y1="207.2344" y2="229.2344"/><polygon fill="#181818" points="802.9834,219.2344,806.9834,229.2344,810.9834,219.2344,806.9834,223.2344" style="stroke:#181818;stroke-width:1;"/><line style="stroke:#181818;stroke-width:1;" x1="284.2002" x2="284.2002" y1="263.2031" y2="335.1719"/><line style="stroke:#181818;stroke-width:1;" x1="284.2002" x2="533.5918" y1="335.1719" y2="335.1719"/><polygon fill="#181818" points="523.5918,331.1719,533.5918,335.1719,523.5918,339.1719,527.5918,335.1719" style="stroke:#181818;stroke-width:1;"/><line style="stroke:#181818;stroke-width:1;" x1="806.9834" x2="806.9834" y1="317.1719" y2="335.1719"/><line style="stroke:#181818;stroke-width:1;" x1="806.9834" x2="557.5918" y1="335.1719" y2="335.1719"/><polygon fill="#181818" points="567.5918,331.1719,557.5918,335.1719,567.5918,339.1719,563.5918,335.1719" style="stroke:#181818;stroke-width:1;"/><line style="stroke:#181818;stroke-width:1;" x1="545.5918" x2="545.5918" y1="175.2344" y2="195.2344"/><polygon fill="#181818" points="541.5918,185.2344,545.5918,195.2344,549.5918,185.2344,545.5918,189.2344" style="stroke:#181818;stroke-width:1;"/><line style="stroke:#181818;stroke-width:1;" x1="545.5918" x2="545.5918" y1="347.1719" y2="367.1719"/><polygon fill="#181818" points="541.5918,357.1719,545.5918,367.1719,549.5918,357.1719,545.5918,361.1719" style="stroke:#181818;stroke-width:1;"/><!--SRC=[hKyxRiCm3DrrYeTC3X3q0F7MkGMwz02CHDj4PCaGgGI-VPcaG2_GYI0Vty_4CkETL28qBhno26hKB9nzfm8fMxSJPZPGc_lAnNHqq1hTk2bZbXiN96aShROTFdjJF-OTNQNCE5HzkrE-7h3Mr3EF8SY4eNPpQMna2-waq8sZJCBf25jSSjXPZm4u8rBE-CfKxFlp0yFKwefjjwKMVws8ZSaOz5lWv15USI3sm5qDatZDo_vdylGT0sUlC9JwRqPgoOkDJpbTwXsRn2lwzWHdBjnS8a5McZtLm-3509Nq8eYpkIIPmcFy0000]--></g></svg>